<svg xmlns="http://www.w3.org/2000/svg" viewBox="150.5 88.2 882.0 674.3" width="882" height="674" role="img"><rect x="-2.00" y="-2.00" width="1204.00" height="804.00" fill="#F3F3EF"/><line x1="210.00" y1="132.00" x2="210.00" y2="620.00" stroke="#C9CAC2" stroke-width="3" stroke-linecap="round"/><circle cx="210.00" cy="168.00" r="17.00" fill="#E8613C"/><rect x="286.00" y="126.00" width="700.00" height="84.00" rx="18" fill="#FBFBF9" stroke="#E8613C" stroke-width="3.6"/><rect x="318.00" y="148.00" width="240.00" height="20.00" rx="10" fill="#E8613C"/><rect x="318.00" y="178.00" width="360.00" height="14.00" rx="7" fill="#C9CAC2"/><circle cx="210.00" cy="280.00" r="12.00" fill="#101010"/><rect x="286.00" y="238.00" width="674.00" height="84.00" rx="18" fill="#FBFBF9" stroke="#101010" stroke-width="2.8"/><rect x="318.00" y="260.00" width="218.00" height="20.00" rx="10" fill="#101010"/><rect x="318.00" y="290.00" width="330.00" height="14.00" rx="7" fill="#C9CAC2"/><circle cx="210.00" cy="392.00" r="12.00" fill="#101010"/><rect x="286.00" y="350.00" width="648.00" height="84.00" rx="18" fill="#FBFBF9" stroke="#101010" stroke-width="2.8"/><rect x="318.00" y="372.00" width="196.00" height="20.00" rx="10" fill="#101010"/><rect x="318.00" y="402.00" width="300.00" height="14.00" rx="7" fill="#C9CAC2"/><circle cx="210.00" cy="504.00" r="12.00" fill="#101010"/><rect x="286.00" y="462.00" width="622.00" height="84.00" rx="18" fill="#FBFBF9" stroke="#101010" stroke-width="2.8"/><rect x="318.00" y="484.00" width="174.00" height="20.00" rx="10" fill="#101010"/><rect x="318.00" y="514.00" width="270.00" height="14.00" rx="7" fill="#C9CAC2"/><circle cx="210.00" cy="616.00" r="12.00" fill="#101010"/><rect x="286.00" y="574.00" width="596.00" height="84.00" rx="18" fill="#FBFBF9" stroke="#101010" stroke-width="2.8"/><rect x="318.00" y="596.00" width="152.00" height="20.00" rx="10" fill="#101010"/><rect x="318.00" y="626.00" width="240.00" height="14.00" rx="7" fill="#C9CAC2"/><rect x="210.00" y="690.00" width="780.00" height="36.00" rx="18" fill="#DCDCD5"/><rect x="210.00" y="690.00" width="639.60" height="36.00" rx="18" fill="#101010"/></svg>