<svg xmlns="http://www.w3.org/2000/svg" viewBox="191.7 101.9 816.6 596.2" width="817" height="596" role="img"><rect x="235.00" y="190.00" width="330.00" height="440.00" rx="10" fill="#FBFBF9" stroke="#101010" stroke-width="2.6"/><line x1="268.00" y1="225.20" x2="532.00" y2="225.20" stroke="#C9CAC2" stroke-width="2.08" stroke-linecap="round"/><rect x="268.00" y="247.20" width="248.16" height="22.88" rx="6.16" fill="#101010"/><rect x="268.00" y="280.20" width="153.12" height="22.88" rx="6.16" fill="#101010"/><rect x="268.00" y="328.60" width="264.00" height="103.40" rx="9.68" fill="none" stroke="#101010" stroke-width="1.8199999999999998"/><rect x="268.00" y="454.00" width="120.12" height="7.48" rx="3.9599999999999995" fill="#C9CAC2"/><rect x="268.00" y="475.12" width="105.71" height="7.48" rx="3.9599999999999995" fill="#C9CAC2"/><rect x="268.00" y="496.24" width="114.11" height="7.48" rx="3.9599999999999995" fill="#C9CAC2"/><rect x="268.00" y="517.36" width="98.50" height="7.48" rx="3.9599999999999995" fill="#C9CAC2"/><rect x="268.00" y="538.48" width="72.07" height="7.48" rx="3.9599999999999995" fill="#C9CAC2"/><rect x="411.88" y="454.00" width="120.12" height="7.48" rx="3.9599999999999995" fill="#C9CAC2"/><rect x="411.88" y="475.12" width="105.71" height="7.48" rx="3.9599999999999995" fill="#C9CAC2"/><rect x="411.88" y="496.24" width="114.11" height="7.48" rx="3.9599999999999995" fill="#C9CAC2"/><rect x="411.88" y="517.36" width="98.50" height="7.48" rx="3.9599999999999995" fill="#C9CAC2"/><rect x="411.88" y="538.48" width="72.07" height="7.48" rx="3.9599999999999995" fill="#C9CAC2"/><rect x="635.00" y="190.00" width="330.00" height="440.00" rx="10" fill="#FBFBF9" stroke="#101010" stroke-width="2.6"/><line x1="668.00" y1="225.20" x2="932.00" y2="225.20" stroke="#C9CAC2" stroke-width="2.08" stroke-linecap="round"/><rect x="668.00" y="247.20" width="248.16" height="22.88" rx="6.16" fill="#101010"/><rect x="668.00" y="280.20" width="153.12" height="22.88" rx="6.16" fill="#101010"/><rect x="668.00" y="328.60" width="264.00" height="103.40" rx="9.68" fill="none" stroke="#101010" stroke-width="1.8199999999999998"/><rect x="668.00" y="454.00" width="120.12" height="7.48" rx="3.9599999999999995" fill="#C9CAC2"/><rect x="668.00" y="475.12" width="105.71" height="7.48" rx="3.9599999999999995" fill="#C9CAC2"/><rect x="668.00" y="496.24" width="114.11" height="7.48" rx="3.9599999999999995" fill="#C9CAC2"/><rect x="668.00" y="517.36" width="98.50" height="7.48" rx="3.9599999999999995" fill="#C9CAC2"/><rect x="668.00" y="538.48" width="72.07" height="7.48" rx="3.9599999999999995" fill="#C9CAC2"/><rect x="811.88" y="454.00" width="120.12" height="7.48" rx="3.9599999999999995" fill="#C9CAC2"/><rect x="811.88" y="475.12" width="105.71" height="7.48" rx="3.9599999999999995" fill="#C9CAC2"/><rect x="811.88" y="496.24" width="114.11" height="7.48" rx="3.9599999999999995" fill="#C9CAC2"/><rect x="811.88" y="517.36" width="98.50" height="7.48" rx="3.9599999999999995" fill="#C9CAC2"/><rect x="811.88" y="538.48" width="72.07" height="7.48" rx="3.9599999999999995" fill="#C9CAC2"/><rect x="410.00" y="140.00" width="380.00" height="520.00" rx="10" fill="#FBFBF9" stroke="#E8613C" stroke-width="4.2"/><line x1="448.00" y1="181.60" x2="752.00" y2="181.60" stroke="#C9CAC2" stroke-width="3.3600000000000003" stroke-linecap="round"/><rect x="448.00" y="207.60" width="285.76" height="27.04" rx="7.28" fill="#E8613C"/><rect x="448.00" y="246.60" width="176.32" height="27.04" rx="7.28" fill="#E8613C"/><rect x="448.00" y="303.80" width="304.00" height="122.20" rx="11.44" fill="none" stroke="#E8613C" stroke-width="2.94"/><rect x="448.00" y="452.00" width="138.32" height="8.84" rx="4.68" fill="#C9CAC2"/><rect x="448.00" y="476.96" width="121.72" height="8.84" rx="4.68" fill="#C9CAC2"/><rect x="448.00" y="501.92" width="131.40" height="8.84" rx="4.68" fill="#C9CAC2"/><rect x="448.00" y="526.88" width="113.42" height="8.84" rx="4.68" fill="#C9CAC2"/><rect x="448.00" y="551.84" width="82.99" height="8.84" rx="4.68" fill="#C9CAC2"/><rect x="613.68" y="452.00" width="138.32" height="8.84" rx="4.68" fill="#C9CAC2"/><rect x="613.68" y="476.96" width="121.72" height="8.84" rx="4.68" fill="#C9CAC2"/><rect x="613.68" y="501.92" width="131.40" height="8.84" rx="4.68" fill="#C9CAC2"/><rect x="613.68" y="526.88" width="113.42" height="8.84" rx="4.68" fill="#C9CAC2"/><rect x="613.68" y="551.84" width="82.99" height="8.84" rx="4.68" fill="#C9CAC2"/></svg>