<svg xmlns="http://www.w3.org/2000/svg" viewBox="53.5 60.3 943.0 683.4" width="943" height="683" role="img"><rect x="-2.00" y="-2.00" width="1204.00" height="804.00" fill="#F3F3EF"/><rect x="96.00" y="115.00" width="858.00" height="34.00" rx="17" fill="#DCDCD5"/><rect x="96.00" y="115.00" width="634.92" height="34.00" rx="17" fill="#101010"/><line x1="833.88" y1="98.00" x2="833.88" y2="166.00" stroke="#101010" stroke-width="3.4" stroke-linecap="round"/><rect x="738.92" y="115.00" width="86.96" height="34.00" rx="17" fill="none" stroke="#C9CAC2" stroke-width="2.6" stroke-dasharray="13 10"/><rect x="96.00" y="223.00" width="858.00" height="34.00" rx="17" fill="#DCDCD5"/><rect x="96.00" y="223.00" width="446.16" height="34.00" rx="17" fill="#101010"/><line x1="696.60" y1="206.00" x2="696.60" y2="274.00" stroke="#101010" stroke-width="3.4" stroke-linecap="round"/><rect x="550.16" y="223.00" width="138.44" height="34.00" rx="17" fill="none" stroke="#C9CAC2" stroke-width="2.6" stroke-dasharray="13 10"/><rect x="96.00" y="331.00" width="858.00" height="34.00" rx="17" fill="#DCDCD5"/><rect x="96.00" y="331.00" width="343.20" height="34.00" rx="17" fill="#101010"/><line x1="765.24" y1="314.00" x2="765.24" y2="382.00" stroke="#101010" stroke-width="3.4" stroke-linecap="round"/><rect x="447.20" y="331.00" width="310.04" height="34.00" rx="17" fill="none" stroke="#E8613C" stroke-width="3.4" stroke-dasharray="13 10"/><rect x="96.00" y="439.00" width="858.00" height="34.00" rx="17" fill="#DCDCD5"/><rect x="96.00" y="439.00" width="540.54" height="34.00" rx="17" fill="#101010"/><line x1="713.76" y1="422.00" x2="713.76" y2="490.00" stroke="#101010" stroke-width="3.4" stroke-linecap="round"/><rect x="644.54" y="439.00" width="61.22" height="34.00" rx="17" fill="none" stroke="#C9CAC2" stroke-width="2.6" stroke-dasharray="13 10"/><rect x="96.00" y="547.00" width="858.00" height="34.00" rx="17" fill="#DCDCD5"/><rect x="96.00" y="547.00" width="240.24" height="34.00" rx="17" fill="#101010"/><line x1="662.28" y1="530.00" x2="662.28" y2="598.00" stroke="#101010" stroke-width="3.4" stroke-linecap="round"/><rect x="344.24" y="547.00" width="310.04" height="34.00" rx="17" fill="none" stroke="#E8613C" stroke-width="3.4" stroke-dasharray="13 10"/><rect x="96.00" y="655.00" width="858.00" height="34.00" rx="17" fill="#DCDCD5"/><rect x="96.00" y="655.00" width="394.68" height="34.00" rx="17" fill="#101010"/><line x1="593.64" y1="638.00" x2="593.64" y2="706.00" stroke="#101010" stroke-width="3.4" stroke-linecap="round"/><rect x="498.68" y="655.00" width="86.96" height="34.00" rx="17" fill="none" stroke="#C9CAC2" stroke-width="2.6" stroke-dasharray="13 10"/></svg>