<svg xmlns="http://www.w3.org/2000/svg" viewBox="46.1 20.3 1107.8 764.2" width="1108" height="764" role="img"><rect x="90.00" y="58.00" width="1020.00" height="424.00" rx="24" fill="#FBFBF9" stroke="#C9CAC2" stroke-width="3.4"/><rect x="142.00" y="116.00" width="824.40" height="26.00" rx="13" fill="#C9CAC2"/><rect x="142.00" y="184.00" width="879.36" height="26.00" rx="13" fill="#C9CAC2"/><rect x="142.00" y="252.00" width="751.12" height="26.00" rx="13" fill="#C9CAC2"/><rect x="142.00" y="320.00" width="531.28" height="26.00" rx="13" fill="#C9CAC2"/><rect x="140.00" y="392.00" width="84.00" height="52.00" rx="10" fill="#E8613C"/><g fill="#FFFFFF"><path d="M185 0V588L202 573Q187 542 159.0 515.5Q131 489 93.5 470.5Q56 452 10 443V593Q47 598 87.0 617.5Q127 637 159.5 664.5Q192 692 206 720H335V0Z" transform="translate(175.39 433.60) scale(0.03432 -0.03432)"/></g><rect x="242.00" y="406.00" width="420.00" height="24.00" rx="12" fill="#101010"/><rect x="90.00" y="525.00" width="1020.00" height="62.00" rx="31" fill="#FBFBF9" stroke="#E8613C" stroke-width="3.8"/><rect x="130.00" y="547.00" width="300.00" height="18.00" rx="9" fill="#E8613C"/><rect x="90.00" y="605.00" width="1020.00" height="62.00" rx="31" fill="#FBFBF9" stroke="#101010" stroke-width="3"/><rect x="130.00" y="627.00" width="246.00" height="18.00" rx="9" fill="#101010"/><rect x="90.00" y="685.00" width="1020.00" height="62.00" rx="31" fill="#FBFBF9" stroke="#101010" stroke-width="3"/><rect x="130.00" y="707.00" width="192.00" height="18.00" rx="9" fill="#101010"/><path d="M182 446 C182 508 130 496 130 524" fill="none" stroke="#E8613C" stroke-width="4.5" stroke-linecap="round" stroke-linejoin="round" stroke-dasharray="14 10"/></svg>