<svg xmlns="http://www.w3.org/2000/svg" viewBox="91.0 78.0 1416.5 690.0" width="1417" height="690" role="img"><rect x="-2.00" y="-2.00" width="1604.00" height="904.00" fill="#0C0C0C"/><rect x="180.00" y="604.00" width="96.00" height="96.00" rx="14" fill="#F3F3EF"/><rect x="320.00" y="562.00" width="96.00" height="138.00" rx="14" fill="#F3F3EF"/><rect x="460.00" y="522.00" width="96.00" height="178.00" rx="14" fill="#F3F3EF"/><rect x="600.00" y="468.00" width="96.00" height="232.00" rx="14" fill="#F3F3EF"/><rect x="740.00" y="414.00" width="96.00" height="286.00" rx="14" fill="#F3F3EF"/><rect x="880.00" y="352.00" width="96.00" height="348.00" rx="14" fill="#F3F3EF"/><rect x="1020.00" y="290.00" width="96.00" height="410.00" rx="14" fill="#F3F3EF"/><rect x="1160.00" y="214.00" width="96.00" height="486.00" rx="14" fill="#F3F3EF"/><rect x="1300.00" y="140.00" width="96.00" height="560.00" rx="14" fill="#F3F3EF"/><path d="M150 250 L1426 250" fill="none" stroke="#E8613C" stroke-width="6" stroke-linecap="round" stroke-linejoin="round"/><circle cx="508.00" cy="250.00" r="17.00" fill="#E8613C"/><line x1="508.00" y1="274.00" x2="508.00" y2="502.00" stroke="#3A3A38" stroke-width="3" stroke-linecap="round" stroke-dasharray="12 10"/><circle cx="928.00" cy="250.00" r="17.00" fill="#E8613C"/><line x1="928.00" y1="274.00" x2="928.00" y2="332.00" stroke="#3A3A38" stroke-width="3" stroke-linecap="round" stroke-dasharray="12 10"/><circle cx="1348.00" cy="250.00" r="17.00" fill="#E8613C"/><line x1="1348.00" y1="274.00" x2="1348.00" y2="120.00" stroke="#3A3A38" stroke-width="3" stroke-linecap="round" stroke-dasharray="12 10"/><line x1="150.00" y1="726.00" x2="1450.00" y2="726.00" stroke="#3A3A38" stroke-width="3" stroke-linecap="round"/></svg>